<?xml version="1.0" encoding="utf-8"?>
<!-- Generator: Adobe Illustrator 16.2.0, SVG Export Plug-In . SVG Version: 6.00 Build 0)  -->
<!DOCTYPE svg PUBLIC "-//W3C//DTD SVG 1.1//EN" "http://www.w3.org/Graphics/SVG/1.1/DTD/svg11.dtd">
<svg version="1.1" id="Layer_1" xmlns="http://www.w3.org/2000/svg" xmlns:xlink="http://www.w3.org/1999/xlink" x="0px" y="0px"
	 width="416px" height="200px" viewBox="17 51 416 200" enable-background="new 17 51 416 200" xml:space="preserve">
<g>
	<g>
		<rect x="17" y="91" fill="#ED312E" width="416" height="112"/>
		<path fill="#FFFFFF" d="M62.116,150.592v19.203c0,8.721-3.748,13.031-11.331,13.031H35.873v-70.167H48.6
			c7.583,0,11.331,4.311,11.331,13.031v2.278c0,6.215-1.831,9.423-5.317,10.927C58.188,140.499,62.116,144.377,62.116,150.592z
			 M48.425,118.535h-6.337v18.192h5.814c3.486,0,5.812-3.245,5.812-7.255v-5.625C53.715,120.239,51.562,118.535,48.425,118.535z
			 M42.088,176.95h8.522c3.138,0,5.29-3.046,5.29-6.653v-20.538c0-4.01-4.338-7.255-7.824-7.255h-5.988V176.95z"/>
		<path fill="#FFFFFF" d="M160.642,112.659v64.761h12.177l-1.341,5.406h-17.139v-70.167H160.642z"/>
		<path fill="#FFFFFF" d="M218.224,182.826h-6.062L208.806,169h-22.294l-3.096,13.826h-6.32l15.448-70.368h8.891L218.224,182.826z
			 M187.606,163.882h19.872l-10.576-44.157L187.606,163.882z"/>
		<polygon fill="#FFFFFF" points="259.116,112.659 246.423,166.637 241.479,143.815 248.805,112.659 243.171,112.659 
			238.761,131.289 234.725,112.659 228.536,112.659 235.609,144.601 230.364,166.766 217.439,112.659 211.137,112.659 
			227.934,182.826 232.305,182.826 238.366,157.042 244.077,182.826 248.448,182.826 265.245,112.659 		"/>
		<path fill="#FFFFFF" d="M293.977,149.684v33.042h-6.304v-32.743c0-4.21-2.325-7.455-5.987-7.455h-6.482v40.198H268.9v-70.167
			h13.658c7.582,0,11.33,4.311,11.33,13.031v2.304c0,6.314-1.916,10.764-5.404,12.367
			C292.318,141.464,293.977,144.271,293.977,149.684z M282.296,118.535h-7.094v18.217h6.569c3.486,0,5.812-1.904,5.812-5.914v-6.99
			C287.585,120.239,285.436,118.535,282.296,118.535z"/>
		<path fill="#FFFFFF" d="M349.318,112.659h5.955v70.167h-7.375l-13.17-56.172v56.172h-5.778v-70.167h8.245l12.123,52.405V112.659
			L349.318,112.659z"/>
		<path fill="#FFFFFF" d="M387.489,150.498v19.898c0,8.721-3.748,13.029-11.332,13.029h-2.267c-7.584,0-11.332-4.31-11.332-13.029
			v-45.309c0-8.721,3.748-13.031,11.332-13.031h2.267c7.495,0,11.157,4.21,11.157,12.831v5.254l-6.129,0.671v-6.126
			c0-3.608-2.151-7.324-5.291-7.324h-1.742c-3.139,0-5.291,3.716-5.291,7.324v46.11c0,3.608,2.152,7.323,5.291,7.323h1.916
			c3.142,0,5.291-3.715,5.291-7.323v-21.641L387.489,150.498z"/>
		<path fill="#FFFFFF" d="M414.614,112.659v6.076h-13.543v11.188h10.426v5.977h-10.426v40.85h13.719v6.077H394.77V112.66
			L414.614,112.659L414.614,112.659z"/>
		<path fill="#FFFFFF" d="M321.855,112.659v6.076h-13.545v11.857h10.428v5.977h-10.428v40.18h13.719v6.077h-20.021v-70.167H321.855z
			"/>
		<path fill="#FFFFFF" d="M136.426,149.684v33.042h-6.303v-32.743c0-4.21-2.326-7.455-5.987-7.455h-6.483v40.198h-6.303v-70.167
			h13.658c7.583,0,11.331,4.311,11.331,13.031v2.304c0,6.314-1.918,10.764-5.404,12.367
			C134.771,141.464,136.426,144.271,136.426,149.684z M124.746,118.535h-7.094v18.217h6.571c3.486,0,5.812-1.904,5.812-5.914v-6.99
			C130.036,120.239,127.884,118.535,124.746,118.535z"/>
		<path fill="#FFFFFF" d="M106.267,182.826h-6.063L96.848,169H74.554l-3.095,13.826h-6.32l15.447-70.368h8.892L106.267,182.826z
			 M75.649,163.882H95.52l-10.575-44.157L75.649,163.882z"/>
	</g>
	<g>
		<polygon fill="#726662" points="157.477,71.203 144.516,71.203 144.516,59.943 157.477,59.943 157.477,61.284 145.856,61.284 
			145.856,69.862 157.477,69.862 		"/>
		<rect x="186.141" y="60.614" fill="#726662" width="1.341" height="10.589"/>
		<rect x="297.438" y="59.943" fill="#726662" width="1.342" height="11.26"/>
		<rect x="304.145" y="59.943" fill="#726662" width="1.34" height="11.26"/>
		<polygon fill="#726662" points="251.176,71.203 249.835,71.203 249.835,62.931 242.124,70.822 234.414,62.931 234.414,71.203 
			233.073,71.203 233.073,59.639 242.124,68.903 251.176,59.639 		"/>
		<polygon fill="#726662" points="274.643,71.203 273.302,71.203 273.302,62.931 265.591,70.822 257.881,62.931 257.881,71.203 
			256.54,71.203 256.54,59.639 265.591,68.903 274.643,59.639 		"/>
		<rect x="179.995" y="59.943" fill="#726662" width="13.632" height="1.341"/>
		<rect x="145.186" y="64.807" fill="#726662" width="6.257" height="1.341"/>
		<path fill="#726662" d="M208.873,71.203h-11.391v-11.26h8.708c1.737,0,3.15,1.413,3.15,3.15c0,0.673-0.212,1.297-0.572,1.81h0.104
			c1.736,0,3.149,1.413,3.149,3.149C212.022,69.79,210.609,71.203,208.873,71.203z M198.823,69.862h10.05
			c0.997,0,1.809-0.812,1.809-1.81c0-0.997-0.812-1.809-1.809-1.809h-10.05V69.862z M202.895,64.903h3.296
			c0.998,0,1.81-0.812,1.81-1.81s-0.812-1.81-1.81-1.81h-7.367v3.619L202.895,64.903L202.895,64.903z"/>
		<circle fill="#726662" cx="218.357" cy="70.015" r="1.118"/>
		<path fill="#726662" d="M170.137,71.643c-3.458,0-6.122-0.711-8.143-2.173l0.786-1.086c1.784,1.29,4.19,1.917,7.356,1.917
			c3.231,0,5.332-0.692,5.482-1.808c0.052-0.387-0.02-0.689-0.225-0.953c-0.825-1.061-3.599-1.382-6.047-1.666
			c-3.253-0.377-6.325-0.733-6.704-2.789c-0.134-0.729,0.033-1.399,0.482-1.939c1.188-1.428,4.148-1.641,5.807-1.641
			c2.42,0,5.036,0.597,6.663,1.521l-0.662,1.166c-1.44-0.817-3.796-1.346-6.001-1.346c-2.352,0-4.182,0.443-4.775,1.157
			c-0.195,0.234-0.257,0.501-0.195,0.839c0.199,1.081,3.161,1.425,5.54,1.7c2.974,0.345,5.781,0.67,6.951,2.175
			c0.429,0.551,0.595,1.209,0.495,1.955C176.618,71.127,173.062,71.643,170.137,71.643z"/>
		<polygon fill="#726662" points="293.057,71.133 287.689,65.477 292.979,59.902 291.13,59.902 286.768,64.503 282.402,59.902 
			280.555,59.902 285.843,65.477 280.479,71.133 282.326,71.133 286.768,66.451 291.207,71.133 		"/>
	</g>
	<path fill="#726662" d="M366.998,240.162c-3.459,0-6.122-0.71-8.143-2.172l0.785-1.086c1.783,1.289,4.189,1.916,7.356,1.916
		c3.231,0,5.332-0.691,5.481-1.809c0.053-0.386-0.02-0.688-0.225-0.951c-0.825-1.062-3.6-1.383-6.048-1.666
		c-3.253-0.377-6.324-0.732-6.703-2.789c-0.135-0.729,0.033-1.399,0.481-1.94c1.188-1.427,4.148-1.64,5.807-1.64
		c2.421,0,5.036,0.597,6.664,1.521l-0.662,1.166c-1.439-0.817-3.797-1.346-6.002-1.346c-2.352,0-4.182,0.442-4.775,1.157
		c-0.193,0.233-0.257,0.5-0.193,0.838c0.199,1.082,3.16,1.426,5.539,1.701c2.974,0.345,5.781,0.67,6.951,2.174
		c0.429,0.553,0.596,1.209,0.494,1.955C373.479,239.646,369.923,240.162,366.998,240.162z"/>
	<g>
		<path fill="#726662" d="M259.281,240.167l-2.475-2.993c0.867-1.132,1.498-2.355,1.916-3.322l-1.232-0.531
			c-0.352,0.813-0.865,1.835-1.559,2.794l-5.238-6.339h6.781v-1.34h-9.631l2.782,3.364c-3.108,0.479-4.64,2.427-4.74,4.255
			c-0.065,1.187,0.288,2.223,1.022,3c0.88,0.93,2.287,1.44,3.962,1.44c2.112,0,3.772-0.991,5.048-2.292l1.623,1.964H259.281z
			 M250.871,239.154c-1.305,0-2.364-0.362-2.988-1.022c-0.48-0.509-0.701-1.183-0.656-2.004c0.08-1.465,1.484-2.938,4.428-3.085
			l3.406,4.12C253.982,238.295,252.6,239.154,250.871,239.154z"/>
		<polygon fill="#726662" points="177.352,228.378 163.72,228.378 163.72,229.719 169.865,229.719 169.865,239.971 171.206,239.971 
			171.206,229.719 177.352,229.719 		"/>
		<polygon fill="#726662" points="214.897,239.915 204.059,239.915 204.059,228.461 205.4,228.461 205.4,238.574 214.897,238.574 		
			"/>
		<path fill="#726662" d="M102.146,240.314c-4.816,0-7.809-2.291-7.809-5.979c0-3.812,3.046-6.277,7.76-6.277
			c2.937,0,4.88,1.012,6.395,2.002l-0.733,1.123c-1.417-0.927-3.083-1.783-5.661-1.783c-3.96,0-6.419,1.892-6.419,4.937
			c0,4.304,4.951,4.638,6.468,4.638c2.444,0,4.414-0.867,5.636-1.596l0.687,1.152C107.102,239.346,104.896,240.314,102.146,240.314z
			"/>
		<path fill="#726662" d="M138.353,240.314c-4.816,0-7.81-2.291-7.81-5.979c0-3.812,3.046-6.277,7.76-6.277
			c2.937,0,4.881,1.012,6.395,2.002l-0.733,1.123c-1.416-0.927-3.083-1.783-5.661-1.783c-3.959,0-6.419,1.892-6.419,4.937
			c0.001,4.304,4.951,4.638,6.469,4.638c2.443,0,4.413-0.867,5.635-1.596l0.687,1.152
			C143.307,239.346,141.102,240.314,138.353,240.314z"/>
		<path fill="#726662" d="M119.858,240.443c-4.386,0-7.57-2.631-7.57-6.256s3.185-6.256,7.57-6.256c4.316,0,7.57,2.688,7.57,6.256
			C127.429,237.755,124.175,240.443,119.858,240.443z M119.858,229.271c-3.667,0-6.229,2.021-6.229,4.916
			c0,2.849,2.619,4.916,6.229,4.916c3.552,0,6.229-2.114,6.229-4.916C126.087,231.385,123.41,229.271,119.858,229.271z"/>
		<rect x="196.951" y="228.461" fill="#726662" width="1.342" height="11.51"/>
		<path fill="#726662" d="M180.267,239.9l2.055-3.568h6.488l2.179,3.568h1.571l-7.123-11.668l-6.718,11.668H180.267z
			 M185.471,230.861l2.521,4.13h-4.897L185.471,230.861z"/>
		<path fill="#726662" d="M226.941,240.307c-3.458,0-6.121-0.711-8.142-2.174l0.785-1.086c1.784,1.29,4.19,1.918,7.356,1.918
			c3.231,0,5.332-0.693,5.481-1.809c0.054-0.387-0.021-0.689-0.225-0.953c-0.824-1.061-3.599-1.383-6.048-1.666
			c-3.251-0.376-6.324-0.732-6.702-2.789c-0.135-0.729,0.032-1.398,0.482-1.939c1.188-1.428,4.147-1.641,5.806-1.641
			c2.42,0,5.035,0.598,6.662,1.521l-0.66,1.164c-1.44-0.816-3.797-1.346-6.002-1.346c-2.352,0-4.181,0.443-4.775,1.158
			c-0.194,0.232-0.257,0.501-0.194,0.838c0.199,1.082,3.16,1.426,5.54,1.7c2.973,0.345,5.78,0.671,6.95,2.175
			c0.429,0.553,0.597,1.209,0.495,1.955C233.424,239.791,229.867,240.307,226.941,240.307z"/>
		<path fill="#726662" d="M279.221,240.331c-3.457,0-6.121-0.71-8.143-2.172l0.786-1.086c1.784,1.29,4.19,1.917,7.356,1.917
			c3.23,0,5.331-0.692,5.481-1.809c0.052-0.387-0.021-0.688-0.226-0.953c-0.824-1.061-3.599-1.381-6.047-1.666
			c-3.252-0.375-6.326-0.731-6.703-2.789c-0.135-0.729,0.031-1.398,0.482-1.939c1.188-1.427,4.146-1.641,5.807-1.641
			c2.42,0,5.034,0.598,6.662,1.521l-0.662,1.166c-1.439-0.816-3.795-1.346-6-1.346c-2.353,0-4.182,0.443-4.775,1.156
			c-0.195,0.234-0.258,0.502-0.195,0.84c0.199,1.082,3.161,1.425,5.541,1.699c2.973,0.346,5.78,0.67,6.95,2.176
			c0.429,0.552,0.595,1.209,0.495,1.955C285.702,239.816,282.146,240.331,279.221,240.331z"/>
		<path fill="#726662" d="M292.093,239.971h-1.341v-11.468h11.391c1.736,0,3.149,1.413,3.149,3.149s-1.413,3.149-3.149,3.149h-10.05
			V239.971z M292.093,233.462h10.05c0.998,0,1.809-0.812,1.809-1.81s-0.811-1.81-1.809-1.81h-10.05V233.462z"/>
		<rect x="309.557" y="228.486" fill="#726662" width="1.34" height="11.482"/>
		<rect x="336.375" y="228.453" fill="#726662" width="1.341" height="11.553"/>
		<polygon fill="#726662" points="355.662,228.503 342.029,228.503 342.029,229.844 348.176,229.844 348.176,239.866 
			349.518,239.866 349.518,229.844 355.662,229.844 		"/>
		<polygon fill="#726662" points="153.931,232.844 160.769,228.41 158.304,228.41 150.019,233.782 150.019,228.461 148.678,228.461 
			148.678,239.922 150.019,239.922 150.019,235.38 152.749,233.609 160.547,239.966 162.669,239.966 		"/>
		<path fill="#726662" d="M332.914,240.006l-11.684-5.203h7.729c1.735,0,3.149-1.412,3.149-3.148c0-1.737-1.414-3.15-3.149-3.15
			h-11.39v11.467h1.341v-4.73l10.705,4.768h3.298V240.006z M318.912,229.844h10.049c0.997,0,1.809,0.812,1.809,1.811
			c0,0.996-0.812,1.809-1.809,1.809h-10.049V229.844z"/>
	</g>
</g>
</svg>
